# xmcd CD database file
#
# Track frame offsets:
#	150
#	18775
#	39269
#	67596
#	85362
#	100255
#	126306
#	149991
#	175589
#	193111
#	211571
#	236025
#	257412
#	277856
#
# Disc length: 4018 seconds
#
# Revision: 0
# Processed by: cddbd v1.4PL0 Copyright (c) Steve Scherf et al.
# Submitted via: CDex 1.50beta10
#
DISCID=b70fb00e
DTITLE=Quinto Mayor - re sonando
DYEAR=2000
DGENRE=Salsa
TTITLE0=palo de mango
TTITLE1=enamorada de un amigo mio
TTITLE2=faisan
TTITLE3=guaguanco pa'l que sabe
TTITLE4=la casa
TTITLE5=tal vez vuelvas a llamarme
TTITLE6=en el bajio
TTITLE7=agua de clavelito
TTITLE8=tu no sabe na
TTITLE9=papaupa
TTITLE10=la morena
TTITLE11=mendigo de amor
TTITLE12=abandonada fué
TTITLE13=nacio varon
EXTD=YEAR: 2000
EXTT0=
EXTT1=
EXTT2=
EXTT3=
EXTT4=
EXTT5=
EXTT6=
EXTT7=
EXTT8=
EXTT9=
EXTT10=
EXTT11=
EXTT12=
EXTT13=
PLAYORDER=
